HIERARCHY
ROOT Hips
{
	OFFSET 0.000000 0.000000 0.000000
	CHANNELS 6 Xposition Yposition Zposition Zrotation Yrotation Xrotation 
	JOINT LHipJoint
	{
		OFFSET 0.000000 0.000000 0.000000
		CHANNELS 3 Zrotation Yrotation Xrotation
		JOINT LeftUpLeg
		{
			OFFSET 1.363060 -1.794630 0.839290
			CHANNELS 3 Zrotation Yrotation Xrotation
			JOINT LeftLeg
			{
				OFFSET 2.448110 -6.726130 0.000000
				CHANNELS 3 Zrotation Yrotation Xrotation
				JOINT LeftFoot
				{
					OFFSET 2.562200 -7.039590 0.000000
					CHANNELS 3 Zrotation Yrotation Xrotation
					JOINT LeftToeBase
					{
						OFFSET 0.157640 -0.433110 2.322550
						CHANNELS 3 Zrotation Yrotation Xrotation
						End Site
						{
							OFFSET 0.000000 0.000000 0.000000
						}
					}
				}
			}
		}
	}
	JOINT RHipJoint
	{
		OFFSET 0.000000 0.000000 0.000000
		CHANNELS 3 Zrotation Yrotation Xrotation
		JOINT RightUpLeg
		{
			OFFSET -1.305520 -1.794630 0.839290
			CHANNELS 3 Zrotation Yrotation Xrotation
			JOINT RightLeg
			{
				OFFSET -2.542530 -6.985550 0.000000
				CHANNELS 3 Zrotation Yrotation Xrotation
				JOINT RightFoot
				{
					OFFSET -2.568260 -7.056230 0.000000
					CHANNELS 3 Zrotation Yrotation Xrotation
					JOINT RightToeBase
					{
						OFFSET -0.164730 -0.452590 2.363150
						CHANNELS 3 Zrotation Yrotation Xrotation
						End Site
						{
							OFFSET 0.000000 0.000000 0.000000
						}
					}
				}
			}
		}
	}
}
MOTION
Frames: 34
Frame Time: 0.008333
3.424944 17.238769 0.915469 173.198106 -89.300165 -162.653071 -11.527855 1.748002 0.802899 -3.908790 15.740707 -14.421991 -2.452517 -0.990639 -1.946889 0.379795 3.228935 3.313636 0.767000 0.000000 -37.518500 9.298706 -1.537567 2.172351 3.078550 -2.521333 -8.526808 2.098181 1.569505 -2.149606 -1.216771 -7.248264 -0.632189 -1.577400 -0.000000 -40.850600
3.430210 17.234501 0.907208 -1.724348 -88.341929 12.244955 -11.384790 1.823954 1.277237 -3.613662 13.700968 -14.754212 -2.373092 -0.959426 -1.794230 0.339901 2.792762 3.381215 0.700999 -0.000000 -37.743400 9.401355 -1.469072 1.791739 3.511220 -4.345208 -8.179244 2.107396 1.626802 -2.221856 -1.333905 -7.925068 -0.852706 -1.650200 0.000000 -40.553000
3.434838 17.230633 0.897170 -0.168462 -86.709691 10.662827 -11.302632 1.849642 1.508358 -3.560015 12.664898 -14.931754 -2.368966 -0.958883 -1.838304 0.267660 2.192689 3.607820 0.612000 0.000000 -38.045201 9.465323 -1.458353 1.637061 3.634287 -5.117658 -7.915311 2.052019 1.648327 -2.240922 -1.500256 -8.781099 -1.130578 -1.742500 0.000000 -40.224400
3.439084 17.227437 0.887170 0.589723 -85.059035 9.891307 -11.233721 1.868498 1.737195 -3.513290 11.623991 -15.119701 -2.365710 -0.959468 -1.888955 0.195344 1.593483 3.859833 0.520600 0.000000 -38.365600 9.516798 -1.455434 1.483420 3.750859 -5.907340 -7.627309 1.999794 1.675150 -2.357200 -1.662549 -9.627902 -1.343971 -1.840101 -0.000000 -39.875000
3.442817 17.225016 0.877527 0.944390 -83.410983 9.540804 -11.173688 1.881002 1.959031 -3.465142 10.629808 -15.345651 -2.366832 -0.960180 -1.923907 0.120252 0.964009 4.126094 0.419700 0.000000 -38.705800 9.558467 -1.462188 1.344079 3.879681 -6.670485 -7.318254 1.950582 1.710162 -2.584513 -1.823437 -10.486834 -1.486332 -1.951100 -0.000001 -39.488800
3.446164 17.223485 0.868036 1.180328 -81.784809 9.319162 -11.115397 1.891587 2.176073 -3.422555 9.657664 -15.565715 -2.369617 -0.963628 -1.989656 0.047362 0.356344 4.425076 0.319099 -0.000000 -39.049300 9.599527 -1.476288 1.217588 4.003146 -7.406206 -6.985856 1.902434 1.750681 -2.910645 -1.979449 -11.339385 -1.560437 -2.074600 0.000001 -39.081299
3.449456 17.222788 0.858892 1.345279 -80.195147 9.173025 -11.057772 1.901811 2.388931 -3.386883 8.714851 -15.773604 -2.374021 -0.970586 -2.093141 -0.022365 -0.219213 4.755210 0.220000 0.000000 -39.385800 9.641311 -1.498245 1.108126 4.119723 -8.101339 -6.636039 1.854976 1.795778 -3.322661 -2.129837 -12.181816 -1.570866 -2.211800 0.000000 -38.658900
3.452672 17.222748 0.850602 1.414794 -78.651750 9.131751 -11.002500 1.911651 2.597531 -3.353149 7.829828 -15.994114 -2.381682 -0.980636 -2.210886 -0.090713 -0.783521 5.099076 0.117900 -0.000000 -39.713200 9.680732 -1.530534 1.025570 4.243505 -8.727193 -6.280062 1.808393 1.846866 -3.812562 -2.277744 -13.029554 -1.526681 -2.366400 -0.000000 -38.203300
3.456446 17.223287 0.843223 1.464269 -77.172186 9.108477 -10.946027 1.924889 2.803947 -3.329700 6.981403 -16.196363 -2.390683 -0.994582 -2.364714 -0.154150 -1.298327 5.460823 0.020200 -0.000000 -40.011100 9.723028 -1.569427 0.963974 4.356335 -9.299197 -5.926829 1.762270 1.899692 -4.342429 -2.418500 -13.853364 -1.440170 -2.531800 0.000000 -37.743700
3.461156 17.224208 0.837079 1.491028 -75.770588 9.105909 -10.888805 1.941702 3.007080 -3.315896 6.179146 -16.388015 -2.401164 -1.011559 -2.537677 -0.212607 -1.764367 5.825354 -0.072800 0.000000 -40.272100 9.767216 -1.613715 0.924263 4.459800 -9.809609 -5.590247 1.717064 1.952830 -4.885216 -2.552058 -14.647421 -1.326673 -2.704400 0.000000 -37.280200
3.467560 17.225459 0.832201 1.520589 -74.465617 9.091222 -10.830579 1.961561 3.202709 -3.316328 5.423187 -16.558578 -2.412376 -1.030411 -2.721416 -0.264699 -2.167817 6.183286 -0.157400 0.000000 -40.482300 9.814234 -1.659780 0.899578 4.543618 -10.266752 -5.280876 1.673163 2.002189 -5.403690 -2.675345 -15.388590 -1.200866 -2.875899 -0.000000 -36.830100
3.475940 17.226837 0.828808 1.536562 -73.265804 9.083975 -10.773152 1.980130 3.390569 -3.325714 4.722308 -16.726401 -2.424167 -1.051234 -2.885841 -0.310899 -2.510002 6.514310 -0.232100 -0.000000 -40.642600 9.853370 -1.691983 0.875531 4.624449 -10.632853 -5.331869 1.624291 1.990202 -5.172302 -2.702186 -16.062268 -1.483629 -3.040300 -0.000000 -36.365700
3.487095 17.228498 0.826466 1.588316 -72.205461 9.037392 -10.718965 1.993904 3.555343 -3.353544 4.081821 -16.874392 -2.435226 -1.070716 -3.023686 -0.348618 -2.771015 6.811952 -0.291400 0.000000 -40.736500 9.890983 -1.717930 0.852638 4.674967 -10.941829 -5.450263 1.577918 1.965026 -4.827904 -2.704465 -16.644632 -1.800300 -3.186100 -0.000001 -35.926299
3.501376 17.230479 0.824911 1.684491 -71.312032 8.956512 -10.672703 1.996133 3.685295 -3.399843 3.513610 -17.013753 -2.444406 -1.086824 -3.113963 -0.376498 -2.941786 7.061345 -0.331700 -0.000001 -40.762400 9.924680 -1.739137 0.830881 4.691437 -11.187673 -5.545812 1.537326 1.943762 -4.591477 -2.716298 -17.128451 -2.022441 -3.305499 0.000000 -35.511300
3.518980 17.232943 0.823650 1.842897 -70.611831 8.833269 -10.638088 1.980492 3.768864 -3.467013 3.030682 -17.146805 -2.451034 -1.098423 -3.142470 -0.393233 -3.011213 7.253870 -0.348900 0.000001 -40.718100 9.951824 -1.753438 0.804751 4.668989 -11.364838 -5.614431 1.503748 1.926946 -4.485853 -2.745828 -17.495257 -2.131976 -3.390300 -0.000000 -35.125301
3.539939 17.236091 0.822112 2.073258 -70.128980 8.665705 -10.617671 1.942081 3.796907 -3.556408 2.649537 -17.277142 -2.454980 -1.105201 -3.099123 -0.398023 -2.972417 7.384267 -0.340200 -0.000000 -40.603600 9.970830 -1.760188 0.772498 4.605449 -11.464959 -5.657066 1.478147 1.914810 -4.526920 -2.798587 -17.728823 -2.114575 -3.434500 0.000000 -34.772000
3.563908 17.240074 0.819724 2.380249 -69.881111 8.452055 -10.611691 1.878675 3.764725 -3.668346 2.388880 -17.406856 -2.456856 -1.107926 -2.979752 -0.390752 -2.823716 7.451072 -0.304200 0.000000 -40.423400 9.982275 -1.761181 0.737364 4.502186 -11.480429 -5.677320 1.461093 1.907257 -4.723506 -2.876097 -17.814780 -1.962370 -3.434199 0.000000 -34.452000
3.590322 17.244998 0.816083 2.757532 -69.877214 8.195658 -10.618627 1.790593 3.672392 -3.801172 2.268920 -17.538067 -2.457736 -1.108096 -2.785450 -0.372219 -2.571178 7.457861 -0.242300 -0.000000 -40.183900 9.988259 -1.760641 0.707393 4.364781 -11.404230 -5.682254 1.452637 1.903617 -5.075428 -2.975581 -17.744635 -1.673049 -3.389100 -0.000000 -34.163900
3.618356 17.250907 0.810886 3.196706 -70.115725 7.899087 -10.636224 1.679765 3.523167 -3.951630 2.308089 -17.671592 -2.458967 -1.107670 -2.524187 -0.344007 -2.228154 7.411821 -0.157900 0.000000 -39.895500 9.991272 -1.763898 0.692130 4.202406 -11.231703 -5.680959 1.452238 1.902676 -5.573356 -3.089420 -17.516115 -1.252842 -3.302200 -0.000000 -33.905400
3.646917 17.257768 0.804084 3.683947 -70.569936 7.563342 -10.661462 1.547669 3.326532 -4.114029 2.518283 -17.803814 -2.462718 -1.110789 -2.208008 -0.309530 -1.817214 7.324730 -0.056400 -0.000001 -39.571200 9.981272 -1.755079 0.679404 4.036704 -10.932848 -6.122219 1.454248 1.823903 -5.210999 -3.074201 -17.116945 -1.283011 -3.179800 0.000000 -33.666800
3.674977 17.265451 0.795879 4.213125 -71.223017 7.200806 -10.695497 1.396594 3.083380 -4.282710 2.904061 -17.940128 -2.469205 -1.117562 -1.857729 -0.270604 -1.360841 7.209041 0.055500 0.000000 -39.225100 9.962292 -1.749626 0.685778 3.873909 -10.524103 -6.752791 1.463721 1.714831 -4.563958 -3.009793 -16.578756 -1.434338 -3.032100 -0.000000 -33.452500
3.701202 17.273818 0.786741 4.767465 -72.039304 6.833924 -10.739819 1.229327 2.797892 -4.445920 3.456752 -18.080714 -2.478189 -1.128284 -1.497743 -0.229623 -0.885194 7.078469 0.170700 -0.000000 -38.876500 9.933933 -1.755117 0.715297 3.727666 -10.019851 -7.461383 1.481872 1.595836 -3.866527 -2.926158 -15.936395 -1.576276 -2.872200 -0.000000 -33.266100
3.723872 17.282561 0.777206 5.345244 -72.979175 6.471181 -10.792354 1.053182 2.485338 -4.602847 4.154259 -18.236066 -2.491121 -1.144664 -1.151763 -0.189072 -0.412027 6.943604 0.284000 -0.000001 -38.527000 9.896339 -1.773960 0.774507 3.604390 -9.430569 -8.237292 1.507750 1.473348 -3.149126 -2.828089 -15.221726 -1.707354 -2.707300 0.000000 -33.065000
3.742091 17.291559 0.768162 5.860362 -73.994652 6.147296 -10.848764 0.886258 2.181149 -4.727752 4.962345 -18.377327 -2.504819 -1.165831 -0.843951 -0.151321 0.034838 6.817752 0.389800 -0.000001 -38.198500 9.852030 -1.815739 0.876425 3.524035 -8.789273 -9.011339 1.540818 1.355198 -2.466257 -2.720145 -14.479865 -1.796574 -2.553800 0.000000 -32.891199
3.754796 17.300476 0.760280 6.227197 -75.066798 5.869343 -10.897460 0.764018 1.950120 -4.806235 5.842011 -18.473094 -2.516454 -1.191299 -0.594263 -0.117841 0.441125 6.706616 0.485200 0.000000 -37.895600 9.810739 -1.891739 1.054655 3.494339 -8.134488 -9.719347 1.580355 1.252289 -1.852046 -2.606731 -13.745424 -1.836133 -2.418500 0.000000 -32.739500
3.761685 17.308852 0.754094 6.383569 -76.184169 5.685122 -10.933923 0.707552 1.814672 -4.827290 6.738452 -18.509291 -2.522482 -1.216362 -0.422715 -0.087248 0.801693 6.611409 0.568200 -0.000000 -37.625800 9.776047 -1.988541 1.291590 3.517092 -7.504880 -10.309353 1.626343 1.176747 -1.337634 -2.490827 -13.046726 -1.820935 -2.305700 0.000001 -32.621800
3.763301 17.316198 0.750008 6.328151 -77.246525 5.705805 -10.968024 0.682589 1.705036 -4.795234 7.571646 -18.511287 -2.522941 -1.235528 -0.336639 -0.057621 1.115858 6.532637 0.637900 -0.000000 -37.395200 9.740028 -2.069247 1.496452 3.586936 -6.935953 -10.773470 1.675427 1.127238 -0.946304 -2.379386 -12.420088 -1.759270 -2.216800 -0.000000 -32.551600
3.760337 17.322145 0.748320 6.017136 -78.121955 6.006148 -11.001432 0.661135 1.591845 -4.712034 8.269307 -18.472937 -2.517747 -1.248680 -0.325970 -0.030294 1.379612 6.472981 0.694400 -0.000000 -37.206100 9.703816 -2.126801 1.632318 3.697716 -6.473035 -11.085079 1.722146 1.094485 -0.694194 -2.282066 -11.906237 -1.662927 -2.153500 -0.000001 -32.535600
3.753564 17.326514 0.749159 5.421811 -78.751022 6.602393 -11.029779 0.640647 1.480944 -4.580032 8.779731 -18.383303 -2.505234 -1.254758 -0.380360 -0.005409 1.594368 6.431599 0.738900 0.000000 -37.059200 9.672712 -2.158646 1.691655 3.840233 -6.147053 -11.218514 1.762859 1.076557 -0.588141 -2.205323 -11.534100 -1.542495 -2.117100 0.000000 -32.576300
3.743634 17.329034 0.752354 4.633586 -79.116398 7.460941 -11.055725 0.611367 1.342948 -4.414293 9.062153 -18.270339 -2.485356 -1.249441 -0.489657 0.019491 1.767527 6.400480 0.771800 -0.000000 -36.958000 9.644486 -2.142275 1.633121 3.999321 -5.963915 -11.190411 1.795462 1.075967 -0.624137 -2.152210 -11.318812 -1.412259 -2.107400 -0.000000 -32.671201
3.730683 17.329426 0.757491 3.843100 -79.353315 8.466004 -11.082796 0.592676 1.163927 -4.233205 9.104400 -18.180409 -2.456944 -1.223988 -0.655508 0.050407 1.913979 6.362527 0.793100 -0.000000 -36.908200 9.612668 -2.039589 1.408761 4.154695 -5.899973 -11.039889 1.823921 1.112824 -0.789421 -2.117793 -11.246412 -1.282270 -2.122700 -0.000000 -32.813300
3.715055 17.327641 0.764004 2.984193 -79.520075 9.263154 -11.086273 0.689211 1.203481 -4.026210 8.959624 -17.976716 -2.413616 -1.192765 -0.827246 0.077342 2.013120 6.313971 0.803100 0.000000 -36.913300 9.601527 -1.968101 1.274858 4.298032 -5.999534 -10.650050 1.846851 1.184451 -1.057507 -2.104710 -11.314184 -1.162585 -2.161100 -0.000000 -32.989100
3.697100 17.323786 0.771215 2.145342 -79.343803 9.707678 -11.070529 0.851065 1.452513 -3.811105 8.630796 -17.650966 -2.364548 -1.170144 -0.939908 0.090626 2.042377 6.258143 0.801699 -0.000000 -36.975100 9.613699 -1.986510 1.299356 4.422234 -6.287095 -10.025569 1.851961 1.253057 -1.407802 -2.123187 -11.541753 -1.073390 -2.219500 -0.000000 -33.181900
3.677510 17.317938 0.778398 1.538452 -78.913306 9.879439 -11.047833 1.015559 1.742353 -3.614269 8.127270 -17.329437 -2.316490 -1.147225 -0.991895 0.097060 2.017310 6.179298 0.788499 0.000000 -37.094500 9.632588 -2.014711 1.322133 4.515824 -6.693043 -9.304760 1.842762 1.323381 -1.822456 -2.167035 -11.897880 -1.020302 -2.292400 0.000000 -33.376600
